<?xml version="1.0" encoding="utf-8"?>
<!-- Generator: Adobe Illustrator 25.2.0, SVG Export Plug-In . SVG Version: 6.00 Build 0)  -->
<svg version="1.1" id="Layer_1" xmlns="http://www.w3.org/2000/svg" xmlns:xlink="http://www.w3.org/1999/xlink" x="0px" y="0px"
	 viewBox="0 0 3379.5 855.8" style="enable-background:new 0 0 3379.5 855.8;" xml:space="preserve">
<style type="text/css">
	.st0{fill:#EF4A2C;}
	.st1{fill:#101820;}
	.st2{fill-rule:evenodd;clip-rule:evenodd;fill:#101820;}
</style>
<g id="Cart">
	<g>
		<g>
			<path class="st0" d="M935,759.1c-3.6,0.9-7.1,2.2-10.7,2.5c-11.6,1.2-23.1,2.5-34.7,2.9c-27.4,0.9-54.9,1.8-82.3,1.8
				c-19-0.1-38-1.3-56.5-7.4c-22.4-7.5-38.6-23.6-50.3-46.2c-12.4-24-20.4-50.2-27.4-76.7c-11.7-44.2-22.5-88.7-33.7-133.1
				c-2.4-9.4-5.9-18.1-11.3-25.9c-11.1-15.9-27.4-14.8-36.4,2.7c-1.6,3.1-2.9,6.5-4.3,9.8c-1.1,2.6-2.2,5.2-3.5,7.6
				c-3.1,5.4-6.5,5.3-8.3-0.8c-1.9-6.3-3.4-13.3-3.1-19.9c1-21.1,13.6-38.5,31.8-43.4c16.8-4.5,31.8,0.8,45,13.2
				c14.3,13.5,22.3,31.3,27,51.1c10.2,42.6,19.7,85.4,30,127.9c5.2,21.4,11,42.6,17.5,63.5c8.6,28.1,27,43.9,52.3,49.1
				c15.8,3.3,31.7,5.7,47.6,7.6c20.7,2.6,41.5,4.7,62.2,6.5c12.6,1,25.2,0.7,37.8,1.4c3.8,0.2,7.6,2,11.5,3.1
				C935.1,757.3,935,758.2,935,759.1z"/>
			<path class="st0" d="M935,759.1c-3,0.9-6,2.1-9.1,2.8c-1.6,0.3-3.2,0.5-4.7,0.8l-4.7,0.7c-6.3,0.9-12.6,1.8-19,2.5
				c-3.2,0.3-6.4,0.6-9.6,0.8l-9.5,0.7l-19,1.3c-12.7,0.9-25.4,1.5-38.2,2.1c-6.4,0.3-12.7,0.5-19.2,0.6c-6.5,0.1-13,0-19.5-0.4
				c-6.5-0.4-13.1-1.2-19.7-2.4c-3.3-0.6-6.5-1.3-9.8-2.2c-1.6-0.4-3.2-0.9-4.8-1.4c-1.6-0.6-3.3-1.1-4.9-1.7
				c-12.9-4.8-24.5-13.1-33.6-23.1c-4.6-5-8.6-10.4-12.1-16c-0.9-1.4-1.8-2.8-2.6-4.2c-0.8-1.4-1.6-2.9-2.4-4.3l-2.2-4.3l-2.2-4.3
				c-5.6-11.5-10.3-23.4-14.4-35.3c-4.1-11.9-7.7-24-11-35.9l-9.6-35.8c-6.4-23.9-12.7-47.8-19-71.7l-4.7-17.9l-1.2-4.5
				c-0.4-1.5-0.7-2.7-1.1-4c-0.8-2.6-1.7-5.2-2.7-7.6c-1-2.5-2.2-4.8-3.5-7c-0.7-1.1-1.3-2.2-2.1-3.3l-0.5-0.8l-0.5-0.7
				c-0.3-0.5-0.7-0.8-1-1.3c-0.7-0.8-1.4-1.5-2-2c-0.7-0.6-1.3-1-1.9-1.3c-1.2-0.7-2.1-0.8-2.8-0.7c-0.7,0-1.4,0.3-2.5,1
				c-1.1,0.7-2.3,2-3.5,3.7c-1.2,1.7-2.1,3.6-3.2,6.1l-1.8,4.2l-1.9,4.3c-0.6,1.5-1.4,3.2-2.4,5.1c-0.5,0.9-1.1,2-2,3.2l-0.6,0.9
				c-0.2,0.3-0.5,0.7-0.8,1c-0.5,0.6-1.3,1.4-2.1,2.1c-0.5,0.4-1,0.8-1.6,1.2c-0.2,0.2-0.6,0.4-1,0.6c-0.4,0.2-0.7,0.4-1.1,0.6
				c-0.7,0.3-1.8,0.7-2.8,1c-1,0.3-2.3,0.4-3.5,0.4c-1.2,0-2.5-0.2-3.8-0.5c-0.7-0.2-1.2-0.4-1.7-0.6c-0.5-0.2-1-0.5-1.6-0.7
				c-1.8-1-3.2-2.2-4-3.2c-0.2-0.3-0.5-0.5-0.7-0.8L567,506c-0.3-0.4-0.7-1-0.9-1.3c-0.4-0.8-0.9-1.6-1.1-2.3l-0.4-1
				c-0.1-0.3-0.2-0.6-0.3-0.9l-0.3-0.9l-0.2-0.6c-1.9-6.4-3.5-13.4-3.5-21.5l0-1.5l0.1-1.4l0.2-2.8c0.2-1.8,0.5-3.7,0.8-5.5
				c0.8-3.6,1.7-7.3,3.2-10.8c1.3-3.5,3.1-7,5.1-10.3c1.1-1.6,2.1-3.3,3.4-4.8c0.6-0.8,1.2-1.5,1.9-2.3l2-2.2
				c0.7-0.7,1.4-1.4,2.2-2.1c0.8-0.7,1.5-1.4,2.3-2c1.6-1.2,3.2-2.5,4.9-3.6c3.4-2.3,7.2-4,11.1-5.4l3-0.9c1-0.3,1.9-0.5,2.9-0.7
				l1.4-0.3l1.5-0.2c1-0.2,2-0.3,3-0.4c4-0.5,8.2-0.5,12.3,0c4.1,0.4,8.1,1.4,11.9,2.8c3.8,1.4,7.4,3.1,10.7,5.1
				c3.3,2,6.4,4.2,9.2,6.6c0.7,0.6,1.4,1.2,2.1,1.8c0.7,0.6,1.3,1.2,2,1.8c1.3,1.3,2.6,2.5,3.8,3.8l1.8,2l1.7,2.1
				c1.2,1.4,2.2,2.8,3.3,4.2c2,2.9,4,5.8,5.7,8.8c1.8,3,3.3,6.1,4.7,9.2c1.4,3.1,2.7,6.3,3.8,9.4c1.1,3.2,2.1,6.4,3,9.5
				c0.4,1.6,0.9,3.2,1.2,4.8l0.6,2.4l0.5,2.3l4.1,18.1l8,36.1l8,36.1l7.8,36.2c2.7,11.9,5.5,23.8,8.6,35.7
				c1.5,5.9,3.1,11.9,4.7,17.8l2.5,8.9c0.2,0.8,0.4,1.4,0.6,2.1l0.6,2c0.4,1.4,0.9,2.7,1.4,4c2,5.3,4.5,10.3,7.7,14.8
				c3.2,4.5,7,8.6,11.4,12c4.4,3.4,9.3,6.2,14.7,8.3c1.3,0.6,2.7,1,4.1,1.4c1.4,0.5,2.8,0.8,4.2,1.2c1.4,0.4,3,0.7,4.5,1.1l4.6,1
				c12.2,2.7,24.7,4.9,37.1,6.9c12.5,2,25,3.8,37.6,5.6c6.3,0.9,12.6,1.7,18.9,2.5c3.1,0.4,6.3,0.8,9.4,1.1c3.1,0.3,6.3,0.6,9.4,0.8
				l19,1.3l4.8,0.4l2.4,0.2c0.8,0.1,1.6,0.2,2.4,0.4c3.2,0.8,6,2.2,9,3.2l0.1,0l0,0.1L935,759.1z M935,759.1l0-2.8l0.1,0.1
				c-3.1-0.7-6.1-1.8-9.2-2.3c-0.8-0.1-1.5-0.2-2.3-0.2l-2.4,0l-4.8,0c-6.3,0.1-12.7,0.3-19.1,0.4c-3.2,0-6.4,0-9.6-0.1
				c-3.2-0.1-6.4-0.3-9.6-0.4c-6.4-0.3-12.7-0.7-19.1-1.1c-12.7-0.8-25.4-1.8-38.1-3c-12.7-1.2-25.5-2.7-38.2-4.7l-4.8-0.8
				c-1.6-0.3-3.1-0.5-4.8-0.9c-1.7-0.4-3.4-0.7-5-1.1c-1.7-0.5-3.3-0.9-5-1.5c-6.6-2.2-12.9-5.3-18.7-9.3c-5.8-4-10.8-8.9-15.1-14.4
				c-4.2-5.5-7.6-11.4-10.3-17.6c-0.7-1.5-1.4-3.1-1.9-4.7l-0.9-2.4c-0.3-0.8-0.6-1.6-0.8-2.3l-2.9-8.9c-1.9-5.9-3.7-11.9-5.5-17.8
				c-3.6-11.9-7-23.9-10.1-35.9l-9.1-35.9l-8.9-35.9l-8.9-36l-4.4-18l-0.6-2.2l-0.5-2.1c-0.3-1.4-0.8-2.8-1.2-4.1
				c-0.8-2.7-1.7-5.4-2.7-8.1c-4-10.5-9.4-20.2-16.8-27.9c-0.9-1-1.9-1.9-2.8-2.8c-0.5-0.5-1-0.9-1.5-1.3c-0.5-0.4-1-0.9-1.5-1.3
				c-2-1.7-4.1-3.1-6.2-4.3c-2.1-1.3-4.3-2.2-6.4-3c-2.2-0.7-4.4-1.3-6.6-1.5c-2.2-0.2-4.5-0.2-6.7,0.1c-0.6,0-1.1,0.2-1.7,0.3
				l-0.9,0.1l-0.9,0.2c-0.6,0.1-1.2,0.2-1.7,0.4l-1.6,0.5c-2,0.7-4,1.6-5.9,2.9c-1,0.5-1.8,1.3-2.7,2c-0.4,0.3-0.8,0.8-1.3,1.1
				c-0.4,0.4-0.8,0.7-1.2,1.2l-1.2,1.2c-0.4,0.4-0.7,0.9-1.1,1.3c-0.8,0.9-1.3,1.9-2,2.8c-1.2,2-2.3,4.1-3.1,6.4
				c-0.9,2.2-1.5,4.6-2,7c-0.2,1.2-0.4,2.4-0.5,3.6l-0.2,1.8l-0.1,0.9l0,0.8c-0.1,4.3,1,9.5,2.5,14.9l0.1,0.5l0.1,0.2
				c0,0,0,0.1,0,0.2c0,0,0,0,0,0c0,0.1,0-0.1-0.1-0.2c0,0-0.1-0.3-0.2-0.4l-0.4-0.5c-0.4-0.4-1.1-1.1-2.2-1.7
				c-0.3-0.2-0.7-0.4-1-0.5c-0.3-0.1-0.7-0.2-1.1-0.4c-0.9-0.3-1.8-0.3-2.6-0.4c-0.9,0-1.8,0.2-2.4,0.3c-0.7,0.1-1.3,0.4-1.7,0.6
				c-0.2,0.1-0.4,0.2-0.6,0.3c-0.2,0.1-0.4,0.2-0.5,0.3c-0.2,0.1-0.4,0.3-0.6,0.5c-0.2,0.1-0.4,0.4-0.4,0.4c0,0-0.1,0.1-0.1,0.1
				c0,0,0,0,0-0.1c0.1-0.1,0.2-0.4,0.5-0.8c0.4-0.8,1-1.9,1.5-3.3l1.8-4.2l1.8-4.3c1.3-3.1,3.2-6.8,5.5-10.2
				c2.4-3.4,5.5-6.8,9.6-9.6c2.1-1.4,4.4-2.6,7-3.5c2.6-0.9,5.4-1.4,8.2-1.5c5.7-0.2,11.2,1.5,15.4,3.9c2.1,1.2,4,2.6,5.8,4.1
				c1.7,1.5,3.2,3,4.5,4.6c0.6,0.8,1.3,1.6,1.9,2.4l0.9,1.2l0.8,1.1c1,1.5,2,3.1,2.9,4.6c1.8,3.1,3.3,6.4,4.7,9.6
				c1.3,3.3,2.5,6.6,3.4,9.9c0.5,1.6,0.9,3.4,1.3,4.9l1.1,4.5l4.4,18c5.8,24,11.7,47.9,17.4,71.9l8.6,36c2.9,11.9,5.9,23.7,9.5,35.3
				c3.6,11.6,7.5,22.9,12.3,33.9l1.8,4.1l1.9,4c0.6,1.3,1.3,2.6,2,3.9c0.7,1.3,1.4,2.5,2.1,3.8c2.9,5,6.1,9.8,9.8,14.2
				c3.7,4.4,7.8,8.4,12.3,11.8c4.5,3.5,9.5,6.4,14.7,8.7c1.3,0.6,2.7,1.1,4,1.6c1.4,0.5,2.8,1,4.2,1.5c2.8,0.9,5.7,1.7,8.7,2.5
				c5.9,1.4,11.9,2.4,18,3.2c12.2,1.5,24.8,1.7,37.5,2.1c12.7,0.3,25.4,0.4,38.1,0.6l19.1,0.1c6.4,0,12.7,0.1,19,0
				c6.3-0.1,12.7-0.5,19-0.8l4.8-0.3c1.6-0.1,3.2-0.2,4.7-0.3C928.8,760.6,931.9,759.7,935,759.1z"/>
		</g>
		<g>
			<path class="st0" d="M905.2,818.8c-0.5,10.3-4.3,18.2-11.2,24c-12.2,10.3-30,8.3-39.8-4.2c-10-12.7-9.3-30.6,1.6-42.1
				c16.6-17.7,43.9-8.3,48.8,16.8C905,815.1,905.1,817.1,905.2,818.8z M875.2,829.9c8,0,14.1-6.6,14-15.2
				c-0.1-8.3-6.6-15.4-14.1-15.3c-7.3,0.1-14.4,7.8-14.3,15.5C860.9,823.1,867.4,829.9,875.2,829.9z"/>
			<g>
				<path class="st0" d="M905.2,818.8c-0.2,3.9-0.7,7.8-1.9,11.6c-1.2,3.8-2.9,7.5-5.4,10.9c-1.2,1.7-2.6,3.3-4.1,4.8
					c-1.5,1.5-3.2,2.9-5.1,4.2c-3.7,2.5-8.2,4.3-12.9,5.1c-4.8,0.8-9.9,0.5-14.9-1c-4.9-1.5-9.7-4.2-13.5-7.9
					c-0.5-0.5-1-0.9-1.5-1.4l-1.3-1.5l-1.3-1.5l-1.1-1.6l-1.1-1.6l-1-1.7l-1-1.7l-0.8-1.8c-2.1-4.9-3.2-10.2-3.1-15.6
					c0-5.4,1.2-10.7,3.4-15.6c2.2-4.9,5.5-9.3,9.4-12.7c3.9-3.4,8.5-6.1,13.5-7.5c2.5-0.8,5.1-1.2,7.6-1.3c2.5-0.1,5,0.1,7.4,0.5
					c4.8,0.9,9.2,2.9,12.8,5.5c3.7,2.6,6.6,5.8,8.9,9.3c1.1,1.8,2.2,3.5,3,5.4c0.2,0.5,0.4,0.9,0.6,1.4l0.6,1.4l0.5,1.4
					c0.2,0.5,0.3,0.9,0.5,1.4c0.6,1.9,1,3.8,1.3,5.8C905.1,814.9,905.1,816.9,905.2,818.8z M905.2,818.8c-0.1-7.8-3.7-15.6-9.4-20.5
					c-1.4-1.2-3-2.2-4.6-3.1c-1.6-0.9-3.3-1.4-5-1.9c-3.4-0.8-6.8-0.8-9.9,0c-0.8,0.2-1.5,0.5-2.2,0.7c-0.7,0.3-1.4,0.6-2,0.9
					c-1.3,0.7-2.5,1.5-3.5,2.4c-0.6,0.4-1,0.9-1.5,1.4c-0.5,0.5-0.9,1-1.4,1.6c-0.9,1-1.7,2.2-2.4,3.4c-2.8,4.6-4,9.5-4.1,14.4
					c-0.1,4.9,1.1,10,3.8,14.7c1.2,2.3,2.9,4.4,5,6.3c2.1,1.8,4.8,3.4,7.9,4.2c3.1,0.9,6.5,1,9.9,0.3c3.4-0.7,6.8-2.3,9.8-4.6
					c3-2.3,5.4-5.4,7-9C904.2,826.7,905,822.7,905.2,818.8z"/>
				<path class="st0" d="M875.2,829.9c1.9,0,3.8-0.5,5.4-1.6c1.6-1,2.8-2.5,3.6-4.1c0.7-1.6,0.9-3.4,0.7-5.1
					c-0.2-1.6-0.8-3.2-1.7-4.4c-1.7-2.4-4.2-3.5-5.8-3.7c-0.8-0.1-1.5-0.1-1.9,0.1c-0.4,0.1-0.4,0.3-0.3,0.3c0.3,0,0.2-0.2-0.3-0.2
					c-0.5-0.1-1.3,0-2.2,0.2c-1.8,0.5-4.3,1.4-5.9,3.4c-0.8,1.2-1.4,2.7-1.5,4.4c-0.1,1.7,0.1,3.4,0.9,5.1c0.8,1.6,2,3.1,3.6,4.1
					C871.4,829.3,873.3,829.9,875.2,829.9z M875.2,829.9c-3.8,0-7.7-1.1-11.4-3.5c-1.8-1.2-3.6-2.7-5.2-4.6
					c-1.6-1.9-2.9-4.2-3.8-6.9c-0.9-2.9-1.1-6-0.6-9c0.4-3,1.5-5.9,3.2-8.6c1.7-2.6,3.9-5,6.9-6.8c2.9-1.8,6.6-3.1,10.7-3.2
					c3.9-0.1,7.7,1.1,10.8,2.9c3.1,1.8,5.5,4.3,7.2,7c3.4,5.5,3.9,12,2.3,17.3c-0.8,2.6-2,4.9-3.5,6.9c-1.5,2-3.2,3.6-5,4.9
					C883,828.9,879,829.9,875.2,829.9z"/>
			</g>
		</g>
		<g>
			<path class="st0" d="M740.5,818.4c0.4-10.5,4.4-18.4,11.4-24.3c11.6-9.9,28.7-8.4,39,3.2c11.4,12.8,10,34.4-2.8,45.1
				c-16.2,13.5-38.5,6.9-45.5-13.5C741.5,825.6,741.2,821.9,740.5,818.4z M768.8,829.9c7.7,0,14.3-7,14.3-15.2c0-8-7-15.4-14.4-15.4
				c-7.6,0.1-14.1,7.2-14.2,15.4C754.5,823,760.9,829.8,768.8,829.9z"/>
			<g>
				<path class="st0" d="M740.5,818.4c0.2-3.9,0.7-7.8,1.9-11.6c1.1-3.8,2.9-7.5,5.3-10.9c1.2-1.7,2.5-3.3,4-4.9
					c0.7-0.8,1.6-1.5,2.4-2.2c0.8-0.8,1.7-1.4,2.7-2c3.7-2.5,8.1-4.4,12.9-5.2c4.8-0.8,9.9-0.5,14.8,0.9c4.9,1.4,9.6,4,13.6,7.5
					c4,3.5,7.2,8.1,9.3,13c2.1,4.9,3.2,10.2,3.2,15.5c0,5.3-1,10.6-3.1,15.5c-2.1,4.9-5.2,9.5-9.3,13.1c-1,0.9-2.1,1.7-3.2,2.5
					c-0.5,0.4-1.1,0.7-1.7,1l-1.7,0.9l-1.7,0.9l-1.8,0.7l-1.8,0.7l-0.9,0.3l-0.9,0.3c-4.9,1.5-10.1,1.7-14.9,1
					c-4.8-0.8-9.2-2.6-13-5.2c-3.8-2.5-6.7-5.8-9.1-9.2l-0.9-1.3l-0.7-1.4l-0.7-1.3l-0.4-0.7l-0.3-0.7c-0.4-0.9-0.8-1.9-1.2-2.8
					l-0.9-2.9C741.3,826.2,741.3,822.2,740.5,818.4z M740.5,818.4c0.8,3.8,1.1,7.8,2.9,11.3c0.4,0.9,0.8,1.7,1.3,2.6
					c0.5,0.8,1.1,1.6,1.6,2.4l0.4,0.6l0.5,0.5l1,1.1l1,1l1.1,0.9c2.8,2.4,6.2,4.1,9.6,4.8c3.4,0.7,6.8,0.5,9.8-0.3
					c3-0.9,5.7-2.3,7.9-4.2l0.4-0.3l0.4-0.4l0.8-0.8c0.3-0.2,0.5-0.5,0.8-0.7l0.7-0.8c0.2-0.3,0.5-0.6,0.7-0.8
					c0.2-0.3,0.5-0.5,0.6-0.8c0.3-0.6,0.7-1,1-1.6c2.5-4.2,3.6-9.3,3.7-14.5c0-2.6-0.3-5.1-0.9-7.5c-0.6-2.4-1.5-4.7-2.8-7
					c-1.4-2.3-3.1-4.4-5.3-6.3c-2.2-1.8-4.9-3.3-8-4.2c-3.1-0.9-6.5-1-9.9-0.3c-3.4,0.8-6.8,2.4-9.7,4.8c-2.9,2.4-5.3,5.5-6.9,9
					C741.5,810.6,740.7,814.5,740.5,818.4z"/>
				<path class="st0" d="M768.8,829.9c1.9,0,3.8-0.6,5.4-1.6c1.6-1,2.8-2.5,3.6-4.1c0.8-1.6,1.1-3.4,0.9-5.1
					c-0.1-1.7-0.7-3.2-1.6-4.3c-1.7-2.2-4.1-3.2-5.9-3.6c-0.9-0.2-1.7-0.2-2.1-0.1c-0.4,0.1-0.5,0.3-0.3,0.3c0,0-0.1-0.1-0.5-0.2
					c-0.4-0.1-1-0.2-1.9,0c-1.7,0.3-4.1,1.3-5.8,3.7c-0.8,1.2-1.5,2.7-1.7,4.3c-0.2,1.6,0.1,3.4,0.8,5.1c0.8,1.6,2,3.1,3.6,4.1
					C765,829.3,766.9,829.8,768.8,829.9z M768.8,829.9c-3.8,0-7.7-1.1-11.4-3.5c-1.8-1.2-3.6-2.8-5.2-4.7c-1.5-2-2.8-4.3-3.6-7
					c-1.6-5.3-1.1-11.9,2.4-17.4c1.7-2.7,4.1-5.2,7.2-7c3.1-1.8,6.8-2.9,10.6-2.9c4.1,0,7.8,1.2,10.8,3c3,1.8,5.3,4.2,7,6.9
					c3.4,5.3,4.2,11.8,2.5,17.4c-0.8,2.7-2.2,5-3.7,7c-1.6,1.9-3.4,3.5-5.2,4.7C776.6,828.7,772.7,829.9,768.8,829.9z"/>
			</g>
		</g>
	</g>
	<g>
		<path class="st0" d="M938.4,636.9c0,0-115.3-19.9-194.1-2.8c0,0-6.8,6.5-1.5,14c5.3,7.5,64.8,16.6,194.8,0
			C937.6,648.1,944.3,642.1,938.4,636.9z"/>
		<path class="st0" d="M939.5,638.2c-0.4-0.8-1.3-1.3-2.1-1.3c-15-0.2-29.9-0.5-44.8-0.6c-15.3-0.1-30.5-0.1-45.7,0.3
			c-7.6,0.3-15.1,0.4-22.7,0.9l-5.7,0.3l-2.8,0.1l-2.8,0.2c-3.7,0.3-7.5,0.6-11.2,0.9c-3.7,0.3-7.4,0.8-11.2,1.2l-2.8,0.3
			c-0.9,0.1-1.9,0.2-2.8,0.3l-5.5,0.8l-5.5,0.8l-2.8,0.4l-2.7,0.6c-3.6,0.8-7.2,1.5-10.9,2.2l4.7-2.7l0.2-0.3l0,0c0,0,0,0-0.1,0.1
			c0,0.1-0.1,0.2-0.1,0.2c0,0.1,0,0,0.1-0.3c0.1-0.3,0.1-0.9,0-1.4c0-0.1,0-0.2-0.1-0.3c0-0.1-0.1-0.2-0.1-0.3
			c0-0.1-0.1-0.2-0.1-0.2c0,0,0,0,0,0l0,0l-0.2-0.3c-0.1-0.2-0.3-0.4-0.5-0.6c-0.1-0.1-0.2-0.2-0.3-0.3l-0.1-0.1c0,0,0,0,0,0
			c0,0-0.1-0.1-0.1-0.1c0,0-0.1-0.1-0.1-0.1c0,0-0.1-0.1-0.1,0c0.1,0,0.1,0.1,0.2,0.1l0.1,0.1c0,0,0.1,0.1,0.2,0.1
			c0.3,0.1,0.5,0.2,0.8,0.4l1,0.4c0.4,0.1,0.8,0.3,1.2,0.4c0.8,0.3,1.7,0.5,2.5,0.7c3.5,0.9,7.4,1.6,11.3,2.1
			c3.9,0.6,7.9,1.1,11.9,1.4c16,1.5,32.3,2,48.7,2.2c16.4,0.2,32.8,0.1,49.3-0.1c16.5-0.2,33.1-0.4,49.7-0.5l0.3,0l-0.1,0
			c-0.3,0-0.6,0.1-0.8,0.3c0,0,0,0,0,0l0.1-0.1l0.2-0.2c0.2-0.2,0.3-0.3,0.5-0.5c0.3-0.3,0.6-0.7,0.9-1c0.5-0.7,1-1.6,1.3-2.4
			c0.3-0.9,0.3-1.9,0-2.9C940,639.1,939.7,638.7,939.5,638.2C939.5,638.2,939.5,638.2,939.5,638.2z M938.2,636.8
			c0.3,0.1,0.5,0.2,0.8,0.4c0.3,0.2,0.6,0.5,0.8,0.7c0.3,0.4,0.7,0.8,1,1.3c0.6,1,0.9,2.3,0.8,3.6c-0.1,1.3-0.4,2.5-0.9,3.6
			c-0.2,0.6-0.5,1.1-0.8,1.6c-0.1,0.3-0.3,0.5-0.5,0.7l-0.3,0.4l-0.1,0.2c0,0,0,0-0.1,0.1c-0.3,0.3-0.7,0.4-1,0.5l0.2,0
			c-16.2,4.4-32.6,8-49.1,10.9c-8.2,1.4-16.5,2.7-24.8,3.8c-8.3,1.1-16.6,1.9-25,2.7c-16.7,1.3-33.5,1.9-50.5,0.9
			c-4.3-0.2-8.5-0.6-12.9-1.1c-4.3-0.6-8.7-1.2-13.2-2.3c-1.2-0.3-2.3-0.6-3.5-1c-0.6-0.2-1.2-0.4-1.8-0.6l-1.9-0.7
			c-0.6-0.2-1.4-0.6-2.1-0.9c-0.2-0.1-0.3-0.1-0.5-0.3l-0.6-0.3l-1.2-0.7c-0.2-0.1-0.5-0.3-0.7-0.5l-0.8-0.6l-0.8-0.6l-0.2-0.2
			l-0.3-0.3l-0.6-0.6c-0.4-0.4-0.7-0.8-1-1.2c-0.2-0.2-0.4-0.5-0.5-0.6l-0.2-0.4c-0.3-0.5-0.6-1-0.9-1.5c-0.6-0.9-1.1-2.2-1.5-3.4
			c-0.2-0.6-0.4-1.3-0.6-2c-0.2-0.7-0.4-1.3-0.5-2.1c-0.5-2.9-0.4-5.9,0.1-8.6c0.5-2.7,1.4-5,2.5-7c0.5-1,1.1-1.9,1.7-2.8
			c0.3-0.4,0.6-0.9,1-1.3l0.5-0.6l0.3-0.4l0.2-0.2l0.3-0.3l1.5-1.6c0.4-0.4,0.8-0.6,1.3-0.7l1.9-0.4c3.9-0.7,7.9-1.5,11.8-2.2
			l2.9-0.5l2.9-0.4l5.9-0.7l5.9-0.7c2-0.2,3.9-0.3,5.9-0.4c3.9-0.2,7.8-0.5,11.7-0.6c15.6-0.4,31.2,0.2,46.7,1.6
			c15.5,1.5,30.8,3.7,46,6.7c3.8,0.8,7.6,1.5,11.4,2.4l5.7,1.3c1.9,0.4,3.8,0.9,5.7,1.4C923.6,632.2,930.9,634.3,938.2,636.8z"/>
	</g>
	<g>
		<path class="st0" d="M939.9,516.3c0,0-122.5-23.9-206.4-3.3c0,0-7.3,7.8-1.6,16.8s68.9,19.9,207.1,0
			C939,529.7,946.1,522.5,939.9,516.3z"/>
		<path class="st0" d="M939.9,516.3c-17.4-0.8-34.7-1.5-51.9-1.9c-17.2-0.5-34.4-0.6-51.5-0.4c-17.1,0.3-34.1,1-51,2.6
			c-8.4,0.8-16.8,1.8-25.1,3.1c-8.3,1.3-16.5,3-24.6,4.9l5-3l0.2-0.2l0,0c0,0,0,0,0,0.1c0,0.1-0.1,0.1-0.1,0.2
			c-0.1,0.2-0.2,0.3-0.3,0.5c-0.2,0.3-0.2,0.5-0.2,0.6c0,0,0,0,0,0c0,0,0,0,0-0.1c0,0,0,0,0-0.1c0,0,0-0.1,0-0.1c0,0,0,0,0,0
			c0,0,0,0,0,0c0,0,0,0,0,0c0,0,0.1,0.1,0.1,0.3c0,0,0,0.1,0,0.1c0,0,0,0,0,0l-0.1-0.1l-0.1-0.2c-0.1-0.1-0.2-0.2-0.3-0.4l-0.2-0.3
			c-0.1-0.1-0.1-0.1-0.2-0.2l-0.3-0.2c-0.3-0.2-0.2-0.1-0.1-0.1l0.3,0.2l0.4,0.2c1.3,0.6,3.1,1.3,5.1,1.9c3.9,1.1,8.3,2,12.7,2.7
			c4.4,0.7,8.9,1.3,13.4,1.8c18.1,1.8,36.7,2.4,55.3,2.4c18.6,0.1,37.3-0.2,56-0.8l56.4-1.7l-0.9,3c-0.2-0.2-0.4-0.7-0.4-1.3
			c0-0.7,0.3-1.1,0.5-1.3l0.1-0.1l0.1-0.1l0.3-0.3c0.2-0.2,0.4-0.4,0.6-0.6c0.4-0.4,0.7-0.8,1-1.3c0.6-0.9,1.1-1.9,1.4-3
			c0.3-1.1,0.3-2.3,0-3.4c-0.1-0.3-0.1-0.6-0.3-0.9l-0.4-0.8C940.6,517.3,940.2,516.8,939.9,516.3z M939.9,516.3
			c0.9,0.8,1.9,1.7,2.4,2.9c0.6,1.2,0.9,2.7,0.8,4.1c-0.1,1.5-0.5,2.9-1,4.2c-0.3,0.7-0.6,1.3-0.9,1.9c-0.2,0.3-0.4,0.6-0.5,0.9
			l-0.3,0.4l-0.2,0.2l-0.1,0.1c0.2-0.2,0.5-0.6,0.4-1.2c0-0.6-0.3-1.1-0.5-1.2l-0.9,3c-18.4,4.9-37,8.9-55.7,12.1
			c-18.7,3.2-37.5,5.6-56.5,7.1c-4.7,0.3-9.5,0.6-14.2,0.9c-4.8,0.2-9.5,0.4-14.3,0.5c-9.6,0.1-19.2,0-28.8-0.7
			c-4.8-0.3-9.7-0.8-14.6-1.5c-4.9-0.7-9.9-1.6-15-3c-2.6-0.8-5.3-1.6-8.3-3l-1.2-0.6l-1.3-0.7c-0.9-0.6-1.8-1.2-3-2.3l-0.4-0.4
			c-0.2-0.1-0.3-0.3-0.5-0.5l-0.5-0.5c-0.2-0.2-0.3-0.4-0.5-0.6c-0.2-0.2-0.4-0.5-0.6-0.7l-0.3-0.4l-0.1-0.2l-0.1-0.1l-0.4-0.8
			c-0.6-1-1.1-2-1.6-3.2c-0.2-0.6-0.5-1.2-0.7-1.8c-0.2-0.6-0.4-1.3-0.5-1.9c-0.2-0.7-0.3-1.3-0.4-2c-0.1-0.7-0.2-1.4-0.3-2.1
			c-0.1-0.7-0.1-1.4-0.1-2.1c0-0.7,0-1.4,0-2.1c0.1-1.3,0.3-2.7,0.6-3.9c0.5-2.5,1.4-4.8,2.4-6.8c0.5-1,1.1-1.9,1.7-2.9
			c0.3-0.5,0.6-0.9,1-1.4l0.5-0.7l0.3-0.4l0.2-0.2l0.3-0.3l2.1-2.3l3-0.7c17.7-4.2,35.4-6.1,53.1-6.8l6.6-0.2c2.2,0,4.4,0,6.6,0
			c2.2,0,4.4,0,6.6,0c2.2,0,4.4,0.1,6.6,0.1c4.4,0.1,8.8,0.3,13.1,0.6c2.2,0.1,4.4,0.3,6.6,0.4c2.2,0.2,4.4,0.3,6.5,0.5
			c17.4,1.6,34.8,4,51.9,7.3c4.3,0.8,8.6,1.7,12.9,2.7l6.4,1.4l6.4,1.6C923,511.1,931.5,513.4,939.9,516.3z"/>
	</g>
</g>
<g>
	<path d="M51.1,494.7h84.2l51.8,275.8h-66.6l-5.9-49H70.1l-6.6,49H0.1L51.1,494.7z M76.7,672.5h31.8l-14.9-135h-0.7L76.7,672.5z"/>
	<path d="M203.7,494.7h63.5v222.6h69v53.2H203.7V494.7z"/>
	<path d="M357,494.7h63.5v222.6h69v53.2H357V494.7z"/>
	<path d="M959,570c0-53.8,34.5-79.7,81.8-79.7s81.8,25.9,81.8,79.7v25.5h-63.5v-31.1c0-9.3,0-25.2-18.3-25.2s-18.3,15.9-18.3,25.2
		v136.3c0,7.2,0,25.2,18.3,25.2c18.3,0,18.3-18,18.3-25.2v-40.4h63.5v34.9c0,49-31.4,79.7-81.8,79.7S959,744.3,959,695.3L959,570
		L959,570z"/>
	<path d="M1150.9,570c0-53.8,34.5-79.7,81.8-79.7c47.3,0,81.8,25.9,81.8,79.7v125.3c0,49-31.4,79.7-81.8,79.7s-81.8-30.7-81.8-79.7
		L1150.9,570L1150.9,570z M1214.4,700.8c0,7.2,0,25.2,18.3,25.2c18.3,0,18.3-18,18.3-25.2V564.5c0-9.3,0-25.2-18.3-25.2
		c-18.3,0-18.3,15.9-18.3,25.2V700.8z"/>
	<path d="M1344.6,494.7h100.1l17.9,136.7h0.7l17.9-136.7h100.1v275.8h-61.4V556.2h-0.7l-35.6,214.4h-41.4l-35.6-214.4h-0.7v214.4
		h-61.4L1344.6,494.7L1344.6,494.7z"/>
	<path d="M1613.2,494.7h100.1l17.9,136.7h0.7l17.9-136.7H1850v275.8h-61.4V556.2h-0.7l-35.6,214.4h-41.4l-35.6-214.4h-0.7v214.4
		h-61.4L1613.2,494.7L1613.2,494.7z"/>
	<path d="M1880,494.7h141.2v53.2h-77.7v54.9h68v53.2h-68v61.5h80.8v53.2H1880L1880,494.7L1880,494.7z"/>
	<path d="M2052.6,494.7h83.9c56.6,0,80.4,16.9,80.4,66.6c0,32.5-4.5,53.5-38.3,63.9v0.7c22.4,4.5,36.9,20.7,36.9,43.8v48.7
		c0,18.3-0.7,43.2,6.6,52.1h-62.8c-7.2-9-7.2-33.8-7.2-52.1v-44.2c0-15.9-6.2-22.8-24.2-22.8h-11.7v119.1h-63.5L2052.6,494.7
		L2052.6,494.7z M2116.1,604.5h15.5c21.8,0,21.8-14.5,21.8-32.5c0-19.3,0-30.4-24.9-30.4h-12.4V604.5z"/>
	<path d="M2244.5,570c0-53.8,34.5-79.7,81.8-79.7s81.8,25.9,81.8,79.7v25.5h-63.5v-31.1c0-9.3,0-25.2-18.3-25.2
		c-18.3,0-18.3,15.9-18.3,25.2v136.3c0,7.2,0,25.2,18.3,25.2c18.3,0,18.3-18,18.3-25.2v-40.4h63.5v34.9c0,49-31.4,79.7-81.8,79.7
		c-50.4,0-81.8-30.7-81.8-79.7V570z"/>
	<path d="M2436.4,494.7h141.2v53.2H2500v54.9h68v53.2h-68v61.5h80.8v53.2h-144.3L2436.4,494.7L2436.4,494.7z"/>
	<path d="M2695.3,494.7h63.5v103.2h36.6V494.7h63.5v275.8h-63.5V653.2h-36.6v117.4h-63.5V494.7z"/>
	<path d="M2887.3,494.7h141.2v53.2h-77.7v54.9h68v53.2h-68v61.5h80.8v53.2h-144.3L2887.3,494.7L2887.3,494.7z"/>
	<path d="M3059.9,494.7h63.5v222.6h69v53.2h-132.6V494.7z"/>
	<path d="M3213.1,494.7h68c69.7,0,98.4,11.7,98.4,83.9c0,40.4-10,82.5-67,82.5h-35.9v109.4h-63.5L3213.1,494.7L3213.1,494.7z
		 M3276.6,612.1h15.9c20.4,0,23.5-10,23.5-34.9c0-33.5-10.7-33.5-32.1-33.5h-7.2L3276.6,612.1L3276.6,612.1z"/>
</g>
<g id="Ecom_Logo">
	<path class="st0" d="M1832.3,225.6c0-0.8,0-1.9,0-3v-0.4c-0.8-24.6-7.9-48-21.6-68.5l-20.4,13.6c9.5,13.6,14.8,29.5,17,46.1h-29.5
		v-94.2c-7.6-5.7-15.9-10.2-24.2-14v113.4v127.8c8.3-4.2,16.6-8.7,24.2-14.4v-94.2h29.5c-2.3,16.6-7.6,32.5-17,46.5l20.4,13.2
		C1825.1,276.7,1832.3,251.7,1832.3,225.6z M1700.3,353.8c9.4,0,19.3-1.5,29.1-3.4l8.7-1.9v-62h-23.4v42.4c-9.8,1.5-19.6,1.5-29.1,0
		v-91.1h37.1v-23.8h-37.1v-91.1c9.5-1.5,19.3-1.5,29.1,0v42.3h23.4v-61.6l-8.7-2.3c-19.3-4.2-39.3-4.2-58.2,0l-9.5,2.3v245.1
		l9.5,1.9C1680.3,352.3,1690.1,353.8,1700.3,353.8z M1622.1,151.5v62.4H1593C1595.6,190.4,1605.8,168.5,1622.1,151.5z M1610,284.6
		c-9.4-14-15.1-29.9-17-46.1h29.1v94.2c7.6,5.3,15.9,10.2,24.6,14V105.4c-4.9,2.3-9.5,4.5-14,7.2l-4.9,3
		c-37.4,24.6-60.1,65.4-60.1,110.4c0,25.7,7.6,50.7,21.6,72.2L1610,284.6z"/>
	<path class="st1" d="M1533.2,195.7l-0.8,4.5l-4.9-3L1533.2,195.7z M1540.8,193.8l1.1-5.3h-0.8l-21.9,6l-0.4,2.3l18.5,12.9h0.8
		l1.1-5.3l-2.6-1.5l1.5-8.3L1540.8,193.8z"/>
	<path class="st1" d="M1526.4,166.6c-0.8,1.9-1.1,3.4-1.9,5.3l20,6.8c1.5-4.1,2.6-8.3,4.2-12.5c-1.5-0.4-2.6-0.8-4.5-1.5l-2.6,7.2
		C1533.2,168.9,1536.6,170.4,1526.4,166.6z"/>
	<path class="st1" d="M1537.4,141.3c-0.8,1.5-1.9,3-2.6,4.9l18.5,9.8c2.3-3.8,4.2-7.9,6.4-11.7c-1.9-0.8-3.1-1.5-4.6-2.3l-3.4,6.8
		C1543.8,144.7,1546.8,146.2,1537.4,141.3z"/>
	<path class="st1" d="M1569.2,97.4c-3.4,3.8-5.7,6.1-9.1,9.8c5.3,4.5,10.6,9.4,15.5,14.4c3.4-3.8,6-6.4,9.1-10.2
		c-1.1-0.8-2.3-1.9-3.4-3c-2.3,2.3-3.4,3.8-5.3,6c-1.1-1.1-1.9-1.9-3-2.6l4.9-5.3c-1.1-1.1-2.3-2.3-3.4-3.4l-4.9,5.3l-2.3-1.9
		c2.3-2.3,3.4-3.4,5.3-5.7C1571.4,99.7,1570.3,98.5,1569.2,97.4z"/>
	<path class="st1" d="M1586.2,95.9c4.5,5.7,10.9,4.9,15.5,1.9c3.4-3,5.7-7.6,2.6-12.8c-1.5,1.1-2.6,2.3-4.2,3.4
		c0.8,1.9,0,4.2-1.5,5.3c-2.6,1.9-6,1.1-7.9-1.1c-1.9-3-1.9-6,0.8-7.9c1.5-1.5,3.4-1.5,5.3-0.4c1.5-1.1,3-2.3,4.2-3.4
		c-3.8-3.8-9.1-2.7-12.5,0C1583.9,83.8,1582,90.2,1586.2,95.9z"/>
	<path class="st1" d="M1618.3,74c-3.4-6.8,6-11.3,9.4-4.5C1631.2,76.2,1621.7,80.8,1618.3,74z M1632.7,66.8
		c-6.8-12.9-26.1-3.4-19.6,9.8C1619.8,89.5,1639.1,80,1632.7,66.8z"/>
	<path class="st1" d="M1654.6,58.1l-10.2-6.8l-1.9,0.8l5.3,20.4c1.9-0.8,3.4-1.1,5.3-1.5l-2.3-9.1l5.3,3.4l0.8-0.4l3-5.7l2.6,9.1
		c1.5-0.4,3.4-0.8,5.3-1.1l-5.7-20.4l-1.9,0.4L1654.6,58.1z"/>
	<path class="st1" d="M1689.7,52.4l-9.1-8.7h-1.9l1.1,21.2c1.9,0,3.8,0,5.7-0.4l-0.4-9.1l4.5,4.2h0.8l4.2-4.9l0.4,9.5
		c1.9,0,3.8-0.4,5.7-0.4l-1.1-21.2l-2.3,0.4L1689.7,52.4z"/>
	<path class="st1" d="M1729.1,44.9c-4.9-0.4-8.3-0.8-12.9-1.5c-1.1,7.2-1.9,14-2.6,20.8c4.9,0.8,8.3,1.1,13.2,1.9
		c0.4-1.5,0.4-3.4,0.8-4.9c-3.4-0.4-4.9-0.4-8.3-0.8c0.4-1.5,0.4-2.7,0.8-3.8l6.8,0.8c0.4-1.5,0.4-3,0.8-4.5l-7.2-1.1l0.4-2.6
		c3,0.4,4.5,0.4,7.9,0.8C1728.7,48.3,1729.1,46.8,1729.1,44.9z"/>
	<path class="st1" d="M1750.6,60.7l-3.4-1.1c0.4-1.9,0.8-3.4,1.5-5.3c1.1,0.4,2.3,0.8,3.8,1.1C1755.2,56.6,1753.7,61.5,1750.6,60.7z
		 M1754,65.3c6-1.9,7.6-11.7-0.4-14.4c-3-0.8-5.7-1.9-8.7-2.6c-2.3,6.8-4.2,13.6-6.1,20c1.5,0.8,3.4,1.1,4.9,1.5l1.9-5.7l2.6,0.8
		l1.5,6.8l6,1.9v-0.8L1754,65.3z"/>
	<path class="st1" d="M1769.5,67.5c-3.4,6.4,0,12.1,4.6,14.8c4.2,1.9,9.4,1.9,12.8-3c-1.5-0.8-3-1.5-4.9-2.3
		c-1.5,1.5-3.4,1.9-5.7,0.8c-2.6-1.5-3.4-4.9-1.9-7.6c1.5-3,4.5-4.2,7.2-2.6c2.3,0.8,3,2.6,2.6,4.5c1.9,1.1,3.4,1.9,4.9,2.6
		c1.9-5.3-1.1-9.8-5.3-11.7C1779.3,60.7,1772.9,61.5,1769.5,67.5h0.4H1769.5z"/>
	<path class="st1" d="M1816,84.2c-3.8-3-6.4-5.3-10.2-8c-4.2,5.3-8.7,11-12.9,16.6c3.8,3,6.8,5.3,10.6,8c1.1-1.1,1.9-2.3,3-3.8
		c-2.6-1.9-4.2-3-6.4-4.9c0.8-0.8,1.5-1.9,2.3-2.6l5.7,4.2c1.1-1.1,1.9-2.6,3-3.8l-5.7-4.2l1.5-2.6c2.6,1.9,3.8,3,6.4,4.9
		c0.8-1.5,1.9-2.6,3-3.8H1816z"/>
	<path class="st1" d="M1851.6,122.4c-1.1-1.5-2.3-2.6-3.4-4.2l-6,4.6l-3.8-5.3l6-4.5c-1.1-1.5-2.3-3-3.4-4.5l-16.6,12.9
		c0.8,1.5,1.9,3,3,4.5l6.8-5.3l4.2,5.3l-6.8,4.9c1.1,1.5,2.3,3,3.4,4.5L1851.6,122.4z"/>
	<path class="st1" d="M1866.3,148.1c-2.3-4.1-3.8-7.2-6-11.4c-6,3-12.5,6.1-18.5,9.5c1.9,4.1,3.8,7.6,6,11.7
		c1.5-0.4,2.7-1.1,4.2-1.9c-1.5-3-2.3-4.5-3.8-7.2c1.1-0.8,2.3-1.1,3.4-1.9l3.4,6.4c1.5-0.8,2.6-1.5,4.2-2.3l-3.4-6l2.6-1.5
		c1.5,2.6,2.3,4.1,3.8,6.8C1863.7,149.6,1864.8,148.9,1866.3,148.1z"/>
	<path class="st1" d="M1874.2,168.1c-0.8-1.9-1.1-3.4-1.9-5.3l-20,6.8c1.5,3.8,2.6,7.9,4.2,12.1c1.9-0.4,3-0.8,4.5-1.5l-2.3-7.2
		C1867.4,170.4,1863.7,171.5,1874.2,168.1z"/>
	<path class="st1" d="M1870.8,200.6l-0.8-3.8c1.9-0.4,4.2-0.8,6.1-1.1c0,1.1,0.4,2.6,0.4,3.8
		C1877.3,202.6,1871.2,203.3,1870.8,200.6z M1859.9,198.4l5.3-1.1l0.8,4.2c1.5,9.8,17,7.6,15.5-2.7c-0.4-3-0.8-6-1.5-9.1
		c-6.8,1.1-13.6,2.3-20.8,3.4C1859.5,194.6,1859.9,196.5,1859.9,198.4z"/>
	<path class="st1" d="M1526.4,257.4l-0.8-4.5l5.7,1.5L1526.4,257.4z M1519.6,261.5l1.1,5.3h0.8L1540,254l-0.4-2.3l-21.9-6l-0.8,0.4
		l1.1,4.9l2.6,0.8l1.5,8.3L1519.6,261.5z"/>
	<path class="st1" d="M1546.1,278.5c-0.8-1.9-1.1-3.4-1.9-5.3l-20,7.2c1.5,3.8,3,8.3,4.5,12.1c1.5-0.4,2.6-0.8,4.6-1.5l-2.7-7.2
		C1539.3,280.8,1535.5,282,1546.1,278.5z"/>
	<path class="st1" d="M1555.5,301.2c-0.8-1.9-1.5-3.4-2.3-4.9l-18.9,9.8c2.3,3.8,4.2,7.5,6,11.3c1.9-0.8,3-1.1,4.5-2.3l-3.8-6.4
		C1549.1,304.7,1546.1,306.2,1555.5,301.2z"/>
	<path class="st1" d="M1584.3,340.6c-3.4-3.8-5.7-6-8.7-9.8c-5.3,4.9-10.6,9.4-15.5,14.4c3,3.4,5.7,6,9.1,9.8
		c1.1-1.1,2.3-2.3,3.4-3.4c-2.3-2.3-3.4-3.4-5.7-5.7c1.1-1.1,1.9-1.9,3-2.7l4.9,5.3c1.1-1.1,2.3-2.3,3.4-3.4l-4.9-4.9l2.3-2.3
		c1.9,2.3,3,3.4,5.3,5.7C1582,342.5,1583.1,341.7,1584.3,340.6z"/>
	<path class="st1" d="M1586.2,356.5c-4.6,5.7-2.3,12.1,1.9,15.1c3.8,2.6,8.7,3.8,13.2-0.4c-1.5-1.1-3-2.3-4.5-3.4
		c-1.5,1.5-3.8,1.5-5.7,0c-2.6-1.9-2.3-5.3-0.4-8c1.9-2.6,4.9-3.4,7.6-1.5c1.9,1.5,2.6,3.4,1.9,5.3c1.5,1.2,2.6,2.3,4.2,3.4
		c2.6-4.9,0.4-9.8-3-12.5C1597.1,351.5,1590.7,350.8,1586.2,356.5z"/>
	<path class="st1" d="M1617.9,378.4c3.4-6.8,12.8-2.3,9.4,4.5C1624,389.7,1614.5,385.2,1617.9,378.4z M1632.3,385.6
		c6.4-13.2-12.8-22.7-19.3-9.8C1606.6,389,1625.9,398.4,1632.3,385.6z"/>
	<path class="st1" d="M1655.3,391.6l-5.7-11l-1.9-0.8l-5.7,20.4c1.9,0.4,3.8,1.1,5.3,1.5l2.6-9.1l3,5.7h0.8l5.3-3l-2.3,9.1
		c1.9,0.4,3.4,0.8,5.3,1.2l5.3-20.4l-1.5-0.4L1655.3,391.6z"/>
	<path class="st1" d="M1689.7,396.9l-7.6-9.4h-2.3l-1.1,20.8c1.9,0.4,3.8,0.4,5.7,0.4l0.4-9.1l4.2,4.9h0.8l4.6-4.5l-0.4,9.5
		c1.9,0,3.8,0,5.3,0.4l1.5-21.2h-1.9L1689.7,396.9z"/>
	<path class="st1" d="M1726.4,386.3c-4.9,0.8-7.9,1.1-12.9,1.9c0.8,6.8,1.5,13.6,2.6,20.8c4.6-0.8,8.3-1.1,13.2-1.5
		c-0.4-1.9-0.4-3.4-0.8-4.9c-3,0.4-4.9,0.8-7.9,1.1c0-1.5-0.4-2.6-0.4-3.8l7.2-0.8c-0.4-1.9-0.4-3.4-0.8-4.9l-7.2,0.8l-0.4-3
		c3.4-0.4,4.9-0.4,7.9-0.8C1726.8,389.7,1726.8,387.9,1726.4,386.3z"/>
	<path class="st1" d="M1750.6,390.9l-3.8,1.1c-0.4-1.5-0.8-3.4-1.5-4.9c1.1-0.4,2.6-0.8,3.8-1.1
		C1752.1,385.2,1753.3,390.1,1750.6,390.9z M1755.9,393.1c4.2-5.3-0.4-14.4-8.3-11.7c-2.6,0.8-5.7,1.5-8.7,2.6
		c1.9,6.8,4.2,13.2,6.1,20c1.9-0.4,3.4-1.1,5.3-1.5l-1.9-6l2.6-0.8l5.3,4.9l5.7-1.9V398L1755.9,393.1z"/>
	<path class="st1" d="M1769.5,384.8c3.4,6,9.8,6.8,14.8,4.5c3.8-2.3,7.2-6.4,4.9-12.1c-1.5,0.8-3,1.5-4.5,2.6
		c0.4,2.3-0.8,3.8-2.6,4.9c-3,1.5-6,0-7.6-2.7c-1.5-3-0.8-6,2.3-7.5c1.9-1.1,3.8-1.1,5.3,0.4c1.9-0.8,3-1.5,4.9-2.3
		c-3.4-4.5-8.7-4.5-12.5-2.6C1769.5,372.7,1766.5,378.4,1769.5,384.8z"/>
	<path class="st1" d="M1803.6,351.5c-3.8,3-6.4,4.9-10.2,7.9c4.2,5.7,8.3,11,12.5,16.6c4.2-3,6.8-4.9,10.9-7.9
		c-1.1-1.5-2.3-2.6-3-3.8c-2.6,1.9-3.8,3-6.4,4.9c-0.8-1.1-1.5-2.3-2.3-3l5.7-4.6c-0.8-1.1-1.9-2.3-3-3.8l-5.7,4.5l-1.5-2.6
		c2.3-1.9,3.4-2.6,6-4.5C1805.4,354.2,1804.7,352.7,1803.6,351.5z"/>
	<path class="st1" d="M1834.9,317.1c-1.1,1.5-2.3,3-3,4.1l6,4.9l-4.2,4.9l-6-4.5c-1.1,1.5-2.3,3-3.4,4.5l17,12.5
		c1.1-1.1,2.3-2.6,3.4-4.1l-6.8-5.3l3.8-4.9l6.8,4.9c1.2-1.5,2.3-3,3.4-4.5L1834.9,317.1z"/>
	<path class="st1" d="M1847.8,294.4c-2.3,4.1-3.8,7.2-6,11.7c6.4,3,12.9,6.4,18.9,9.4c2.3-4.1,3.8-7.5,6-12.1
		c-1.1-0.4-2.6-1.2-4.2-1.9c-1.5,2.7-2.3,4.2-3.8,7.2c-1.1-0.8-1.9-1.1-3-1.9l3-6.4c-1.5-0.8-2.6-1.1-4.2-1.9l-3.4,6.1l-2.7-1.1
		c1.5-2.7,2.3-4.2,3.8-6.8C1850.8,296,1849.3,295.2,1847.8,294.4z"/>
	<path class="st1" d="M1854.6,277.4c-0.8,1.9-1.1,3.4-1.9,5.3l20,6.4c1.5-4.1,2.6-8.3,4.2-12.5c-1.9-0.4-3.1-0.8-4.6-1.5l-2.3,7.5
		C1861.4,279.7,1864.8,280.8,1854.6,277.4z"/>
	<path class="st1" d="M1871.6,251.7l-0.4,3.8c-1.9-0.4-4.5-0.8-6-0.8c0-1.5,0.4-2.6,0.4-4.1C1866.3,247.6,1872,248.7,1871.6,251.7z
		 M1881.1,257l-5.3-0.8l0.8-3.8c1.5-10.2-14-12.5-15.5-2.6c-0.4,3.4-1.1,6.4-1.5,9.4c7.2,1.1,14,1.9,20.8,3
		C1880.7,260.8,1881.1,258.9,1881.1,257z"/>
	<path class="st2" d="M1478,226c0-29.9,6.1-58.6,17.4-86.2c11.4-26.5,27.2-49.9,47.6-70.3s43.9-36.3,70.7-47.6
		c27.2-11.4,56.3-17.4,86.2-17.4c30.2,0,59,6,86.6,17.4c26.5,11.3,49.9,27.2,70.3,47.6c20.8,20.4,36.3,43.9,47.6,70.3
		c11.7,27.6,17.4,56.4,17.4,86.2c0,30.2-5.7,59-17.4,86.2c-11.4,26.5-26.8,49.9-47.6,70.3c-20.4,20.4-43.9,36.3-70.3,47.7
		c-27.6,11.7-56.3,17.4-86.6,17.4c-29.9,0-59-5.7-86.2-17.4c-26.8-11.4-50.3-27.2-70.7-47.7c-20.4-20.4-36.3-43.9-47.6-70.3
		C1484.1,285,1478,256.2,1478,226h0.4H1478z M1541.6,67.5c-20.8,20.8-37.1,44.6-48.4,71.5c-11.7,27.6-17.4,56.7-17.4,87
		c0,30.2,5.7,59.4,17.4,87.4c11.3,26.5,27.6,50.3,48.4,71.1c20.4,20.4,44.2,36.7,71.1,48c28,11.7,57.1,17.4,87.3,17.4
		c30.6,0,59.7-5.7,87.3-17.4c26.8-11.4,50.7-27.6,71.5-48c20.8-20.8,36.7-44.6,48-71.1c11.7-28,17.8-57.1,17.8-87.4
		c0-30.3-6-59.4-17.8-87c-11.4-26.8-27.2-50.7-48-71.5c-20.8-20.4-44.6-36.7-71.5-48c-27.6-11.7-56.7-17.4-87.3-17.4
		c-30.2,0-59.3,5.7-87.3,17.4C1585.8,30.9,1562,47.1,1541.6,67.5z"/>
	<path class="st2" d="M1487.1,226c0-28.8,5.7-56.4,17-82.8c10.6-25.3,25.7-47.7,45.4-67.3s42.3-34.8,67.7-45.8
		c26.5-11,54.1-16.6,82.8-16.6c29.1,0,56.7,5.7,82.8,16.6c25.7,11,48,26.1,67.7,45.8c19.6,19.7,34.8,42,45.7,67.3
		c11,26.5,16.6,54.1,16.6,82.8c0,28.7-5.7,56.3-16.6,82.8c-10.9,25.3-26.1,47.6-45.7,67.3c-19.7,19.7-42,34.8-67.7,45.8
		c-26.1,11-53.7,16.6-82.8,16.6c-28.7,0-56.3-5.7-82.8-16.6c-25.3-11-48-26.1-67.7-45.8s-34.8-42-45.4-67.3
		C1492.8,282.3,1487.1,254.7,1487.1,226z M1546.5,72.8c-20,20-35.5,42.7-46.5,68.8c-11.3,26.8-17,54.8-17,84.3
		c0,29.5,5.7,57.5,17,84.3c11,26.1,26.5,48.8,46.5,68.8c20,20,43.1,35.5,69.2,46.5c26.8,11.3,54.8,17,84.3,17s57.8-5.7,84.7-17
		c25.7-11,48.8-26.5,68.8-46.5c20-20,35.5-42.7,46.5-68.8c11.4-26.8,17.4-54.8,17.4-84.3c0-29.5-6-57.5-17.4-84.3
		c-10.9-26.1-26.5-48.8-46.5-68.8c-20-20-43.1-35.5-68.8-46.5c-26.8-11.4-55.2-17-84.7-17s-57.5,5.7-84.3,17
		C1589.6,37.3,1566.5,52.8,1546.5,72.8z"/>
</g>
<rect x="0.1" y="363.1" class="st0" width="1426.3" height="29.7"/>
<rect x="1974.2" y="362.2" class="st0" width="1405.9" height="29.7"/>
<rect x="0.5" y="301.2" class="st0" width="1425.9" height="29.7"/>
<rect x="1974.2" y="300.3" class="st0" width="1405.9" height="29.7"/>
</svg>
